<svg width="42" height="9" viewBox="0 0 42 9" fill="none" xmlns="http://www.w3.org/2000/svg">
<path d="M0 9V0H3.66796C4.37311 0 4.97384 0.130371 5.47017 0.391113C5.96649 0.648926 6.34479 1.00781 6.60506 1.46777C6.86835 1.9248 7 2.45215 7 3.0498C7 3.64746 6.86684 4.1748 6.60052 4.63184C6.3342 5.08887 5.94834 5.44482 5.44293 5.69971C4.94055 5.95459 4.33225 6.08203 3.61803 6.08203H1.28016V4.55713H3.30026C3.67856 4.55713 3.99027 4.49414 4.23541 4.36816C4.48357 4.23926 4.66818 4.06201 4.78923 3.83643C4.91332 3.60791 4.97536 3.3457 4.97536 3.0498C4.97536 2.75098 4.91332 2.49023 4.78923 2.26758C4.66818 2.04199 4.48357 1.86768 4.23541 1.74463C3.98725 1.61865 3.6725 1.55566 3.29118 1.55566H1.96563V9H0Z" fill="white"/>
<path d="M25 9V0H28.668C29.3731 0 29.9738 0.130371 30.4702 0.391113C30.9665 0.648926 31.3448 1.00781 31.6051 1.46777C31.8684 1.9248 32 2.45215 32 3.0498C32 3.64746 31.8668 4.1748 31.6005 4.63184C31.3342 5.08887 30.9483 5.44482 30.4429 5.69971C29.9406 5.95459 29.3323 6.08203 28.618 6.08203H26.2802V4.55713H28.3003C28.6786 4.55713 28.9903 4.49414 29.2354 4.36816C29.4836 4.23926 29.6682 4.06201 29.7892 3.83643C29.9133 3.60791 29.9754 3.3457 29.9754 3.0498C29.9754 2.75098 29.9133 2.49023 29.7892 2.26758C29.6682 2.04199 29.4836 1.86768 29.2354 1.74463C28.9872 1.61865 28.6725 1.55566 28.2912 1.55566H26.9656V9H25Z" fill="white"/>
<path d="M16 4.5C16 5.45532 15.8234 6.26806 15.4703 6.93821C15.1199 7.60837 14.6416 8.12025 14.0355 8.47386C13.432 8.82462 12.7536 9 12 9C11.2409 9 10.5596 8.82319 9.9562 8.46958C9.3528 8.11597 8.87591 7.60409 8.52555 6.93394C8.17518 6.26378 8 5.45247 8 4.5C8 3.54468 8.17518 2.73194 8.52555 2.06179C8.87591 1.39164 9.3528 0.881179 9.9562 0.530419C10.5596 0.176806 11.2409 0 12 0C12.7536 0 13.432 0.176806 14.0355 0.530419C14.6416 0.881179 15.1199 1.39164 15.4703 2.06179C15.8234 2.73194 16 3.54468 16 4.5ZM14.1689 4.5C14.1689 3.88118 14.0786 3.35932 13.8978 2.93441C13.7198 2.50951 13.4682 2.18726 13.1429 1.96768C12.8175 1.7481 12.4366 1.63831 12 1.63831C11.5634 1.63831 11.1825 1.7481 10.8571 1.96768C10.5318 2.18726 10.2788 2.50951 10.098 2.93441C9.92006 3.35932 9.83107 3.88118 9.83107 4.5C9.83107 5.11882 9.92006 5.64068 10.098 6.06559C10.2788 6.49049 10.5318 6.81274 10.8571 7.03232C11.1825 7.2519 11.5634 7.36169 12 7.36169C12.4366 7.36169 12.8175 7.2519 13.1429 7.03232C13.4682 6.81274 13.7198 6.49049 13.8978 6.06559C14.0786 5.64068 14.1689 5.11882 14.1689 4.5Z" fill="white"/>
<path d="M22.215 0H24V5.76312C24 6.41021 23.853 6.97641 23.5589 7.46172C23.2676 7.94704 22.8594 8.32547 22.3345 8.59702C21.8096 8.86567 21.1981 9 20.5 9C19.7992 9 19.1863 8.86567 18.6614 8.59702C18.1364 8.32547 17.7283 7.94704 17.437 7.46172C17.1457 6.97641 17 6.41021 17 5.76312V0H18.785V5.60279C18.785 5.94078 18.8551 6.24121 18.9953 6.50409C19.1382 6.76697 19.3388 6.97352 19.5972 7.12374C19.8555 7.27395 20.1565 7.34906 20.5 7.34906C20.8463 7.34906 21.1472 7.27395 21.4028 7.12374C21.6612 6.97352 21.8604 6.76697 22.0006 6.50409C22.1435 6.24121 22.215 5.94078 22.215 5.60279V0Z" fill="white"/>
<path fill-rule="evenodd" clip-rule="evenodd" d="M33.5 9H31L36.5 0H40V5H42V7H40V9H38V7H35L33.5 9ZM35.5 5H38V2H37.5L35.5 5Z" fill="#14CC61"/>
<path d="M40 7H42V5H40V3H38V5H36V7H38V9H40V7Z" fill="white"/>
</svg>
